<mxfile host="app.diagrams.net" modified="2024-04-10T07:26:19.787Z" agent="Mozilla/5.0 (Macintosh; Intel Mac OS X 10_15_7) AppleWebKit/537.36 (KHTML, like Gecko) Chrome/120.0.0.0 Whale/3.24.223.18 Safari/537.36" version="24.2.2" etag="yX9a1KYFMfy4Ket5bPCz" type="github">
  <diagram name="페이지-1" id="UfT5mkc2yS1BYfTib45v">
    <mxGraphModel>
      <root>
        <mxCell id="0" />
        <mxCell id="1" parent="0" />
      </root>
    </mxGraphModel>
  </diagram>
</mxfile>
